<?xml version="1.0" encoding="UTF-8" standalone="no"?>
<!DOCTYPE svg PUBLIC "-//W3C//DTD SVG 1.1//EN"
 "http://www.w3.org/Graphics/SVG/1.1/DTD/svg11.dtd">
<!-- Generated by graphviz version 14.0.0 (20250921.2048)
 -->
<!-- Title: Graph Legend Pages: 1 -->
<svg width="546pt" height="164pt"
 viewBox="0.00 0.00 546.00 164.00" xmlns="http://www.w3.org/2000/svg" xmlns:xlink="http://www.w3.org/1999/xlink">
<g id="graph0" class="graph" transform="scale(1 1) rotate(0) translate(4 160)">
<title>Graph Legend</title>
<!-- Node9 -->
<g id="Node000009" class="node">
<title>Node9</title>
<g id="a_Node000009"><a xlink:title=" ">
<polygon fill="#999999" stroke="#666666" points="314.5,-20 255.5,-20 255.5,0 314.5,0 314.5,-20"/>
<text xml:space="preserve" text-anchor="middle" x="285" y="-6.5" font-family="NanumSquare Neo Regular" font-size="10.00">Inherited</text>
</a>
</g>
</g>
<!-- Node10 -->
<g id="Node000010" class="node">
<title>Node10</title>
<g id="a_Node000010"><a xlink:title=" ">
<polygon fill="white" stroke="#666666" points="70,-88 0,-88 0,-68 70,-68 70,-88"/>
<text xml:space="preserve" text-anchor="middle" x="35" y="-74.5" font-family="NanumSquare Neo Regular" font-size="10.00">PublicBase</text>
</a>
</g>
</g>
<!-- Node10&#45;&gt;Node9 -->
<g id="edge1" class="edge">
<title>Node10&#45;&gt;Node9</title>
<g id="a_edge1"><a xlink:title=" ">
<path fill="none" stroke="#63b8ff" d="M81.3,-64.78C132.16,-51.35 212.32,-30.19 255.36,-18.83"/>
<polygon fill="#63b8ff" stroke="#63b8ff" points="80.53,-61.36 71.75,-67.3 82.31,-68.13 80.53,-61.36"/>
</a>
</g>
</g>
<!-- Node11 -->
<g id="Node000011" class="node">
<title>Node11</title>
<g id="a_Node000011"><a xlink:title=" ">
<polygon fill="#fff0f0" stroke="red" points="68.5,-156 1.5,-156 1.5,-136 68.5,-136 68.5,-156"/>
<text xml:space="preserve" text-anchor="middle" x="35" y="-142.5" font-family="NanumSquare Neo Regular" font-size="10.00">Truncated</text>
</a>
</g>
</g>
<!-- Node11&#45;&gt;Node10 -->
<g id="edge2" class="edge">
<title>Node11&#45;&gt;Node10</title>
<g id="a_edge2"><a xlink:title=" ">
<path fill="none" stroke="#63b8ff" d="M35,-124.28C35,-112.27 35,-97.74 35,-88.44"/>
<polygon fill="#63b8ff" stroke="#63b8ff" points="31.5,-124.03 35,-134.03 38.5,-124.03 31.5,-124.03"/>
</a>
</g>
</g>
<!-- Node13 -->
<g id="node4" class="node">
<title>Node13</title>
<g id="a_node4"><a xlink:title=" ">
<polygon fill="white" stroke="#666666" points="178,-88 88,-88 88,-68 178,-68 178,-88"/>
<text xml:space="preserve" text-anchor="middle" x="133" y="-74.5" font-family="NanumSquare Neo Regular" font-size="10.00">ProtectedBase</text>
</a>
</g>
</g>
<!-- Node13&#45;&gt;Node9 -->
<g id="edge3" class="edge">
<title>Node13&#45;&gt;Node9</title>
<g id="a_edge3"><a xlink:title=" ">
<path fill="none" stroke="darkgreen" d="M164.99,-63.11C194.51,-50.29 237.55,-31.61 263.26,-20.44"/>
<polygon fill="darkgreen" stroke="darkgreen" points="163.94,-59.75 156.17,-66.94 166.73,-66.17 163.94,-59.75"/>
</a>
</g>
</g>
<!-- Node14 -->
<g id="node5" class="node">
<title>Node14</title>
<g id="a_node5"><a xlink:title=" ">
<polygon fill="white" stroke="#666666" points="272,-88 196,-88 196,-68 272,-68 272,-88"/>
<text xml:space="preserve" text-anchor="middle" x="234" y="-74.5" font-family="NanumSquare Neo Regular" font-size="10.00">PrivateBase</text>
</a>
</g>
</g>
<!-- Node14&#45;&gt;Node9 -->
<g id="edge4" class="edge">
<title>Node14&#45;&gt;Node9</title>
<g id="a_edge4"><a xlink:title=" ">
<path fill="none" stroke="#8b1a1a" d="M248.28,-58.52C257.85,-46.13 270.06,-30.33 277.71,-20.44"/>
<polygon fill="#8b1a1a" stroke="#8b1a1a" points="245.58,-56.29 242.23,-66.35 251.12,-60.57 245.58,-56.29"/>
</a>
</g>
</g>
<!-- Node15 -->
<g id="Node000015" class="node">
<title>Node15</title>
<g id="a_Node000015"><a xlink:title=" ">
<polygon fill="#e0e0e0" stroke="#999999" points="383.5,-88 290.5,-88 290.5,-68 383.5,-68 383.5,-88"/>
<text xml:space="preserve" text-anchor="middle" x="337" y="-74.5" font-family="NanumSquare Neo Regular" font-size="10.00">Undocumented</text>
</a>
</g>
</g>
<!-- Node15&#45;&gt;Node9 -->
<g id="edge5" class="edge">
<title>Node15&#45;&gt;Node9</title>
<g id="a_edge5"><a xlink:title=" ">
<path fill="none" stroke="#63b8ff" d="M322.44,-58.52C312.68,-46.13 300.23,-30.33 292.44,-20.44"/>
<polygon fill="#63b8ff" stroke="#63b8ff" points="319.67,-60.67 328.61,-66.35 325.17,-56.33 319.67,-60.67"/>
</a>
</g>
</g>
<!-- Node16 -->
<g id="node7" class="node">
<title>Node16</title>
<g id="a_node7"><a xlink:title=" ">
<polygon fill="white" stroke="#666666" points="478,-88 402,-88 402,-68 478,-68 478,-88"/>
<text xml:space="preserve" text-anchor="middle" x="440" y="-74.5" font-family="NanumSquare Neo Regular" font-size="10.00">Templ&lt; int &gt;</text>
</a>
</g>
</g>
<!-- Node16&#45;&gt;Node9 -->
<g id="edge6" class="edge">
<title>Node16&#45;&gt;Node9</title>
<g id="a_edge6"><a xlink:title=" ">
<path fill="none" stroke="#63b8ff" d="M407.38,-63.11C377.28,-50.29 333.39,-31.61 307.17,-20.44"/>
<polygon fill="#63b8ff" stroke="#63b8ff" points="405.83,-66.25 416.4,-66.95 408.57,-59.81 405.83,-66.25"/>
</a>
</g>
</g>
<!-- Node17 -->
<g id="node8" class="node">
<title>Node17</title>
<g id="a_node8"><a xlink:title=" ">
<polygon fill="white" stroke="#666666" points="475,-156 405,-156 405,-136 475,-136 475,-156"/>
<text xml:space="preserve" text-anchor="middle" x="440" y="-142.5" font-family="NanumSquare Neo Regular" font-size="10.00">Templ&lt; T &gt;</text>
</a>
</g>
</g>
<!-- Node17&#45;&gt;Node16 -->
<g id="edge7" class="edge">
<title>Node17&#45;&gt;Node16</title>
<g id="a_edge7"><a xlink:title=" ">
<path fill="none" stroke="orange" stroke-dasharray="5,2" d="M440,-124.28C440,-112.27 440,-97.74 440,-88.44"/>
<polygon fill="orange" stroke="orange" points="436.5,-124.03 440,-134.03 443.5,-124.03 436.5,-124.03"/>
</a>
</g>
<text xml:space="preserve" text-anchor="middle" x="454.5" y="-108.5" font-family="NanumSquare Neo Regular" font-size="10.00" fill="grey">&lt; int &gt;</text>
</g>
<!-- Node18 -->
<g id="node9" class="node">
<title>Node18</title>
<g id="a_node9"><a xlink:title=" ">
<polygon fill="white" stroke="#666666" points="537.5,-88 496.5,-88 496.5,-68 537.5,-68 537.5,-88"/>
<text xml:space="preserve" text-anchor="middle" x="517" y="-74.5" font-family="NanumSquare Neo Regular" font-size="10.00">Used</text>
</a>
</g>
</g>
<!-- Node18&#45;&gt;Node9 -->
<g id="edge8" class="edge">
<title>Node18&#45;&gt;Node9</title>
<g id="a_edge8"><a xlink:title=" ">
<path fill="none" stroke="#9a32cd" stroke-dasharray="5,2" d="M485.35,-67.55C418.75,-48.22 352.27,-29.65 314.82,-19.25"/>
<polygon fill="#9a32cd" stroke="#9a32cd" points="484,-70.81 494.58,-70.24 485.95,-64.08 484,-70.81"/>
</a>
</g>
<text xml:space="preserve" text-anchor="middle" x="453.43" y="-40.5" font-family="NanumSquare Neo Regular" font-size="10.00" fill="grey">m_usedClass</text>
</g>
</g>
</svg>
